<?xml version="1.0" encoding="UTF-8"?>
<svg width="42px" height="42px" viewBox="0 0 42 42" version="1.1" xmlns="http://www.w3.org/2000/svg" xmlns:xlink="http://www.w3.org/1999/xlink">
    <title>health_green</title>
    <g id="【P11】电站健康度状态取代电站状态（通讯状态）" stroke="none" stroke-width="1" fill="none" fill-rule="evenodd">
        <g id="电站健康度" transform="translate(-98.000000, -86.000000)">
            <g id="编组" transform="translate(98.000000, 77.000000)">
                <g id="health_green" transform="translate(0.000000, 9.000000)">
                    <circle id="Oval" stroke="#07C988" stroke-width="2" fill-opacity="0.25" fill="#000000" cx="21" cy="21" r="20"></circle>
                    <g id="电站概况" transform="translate(9.000000, 9.000000)" fill="#07C988" fill-rule="nonzero">
                        <path d="M11.9401361,0.72198129 C12.6765274,0.72198129 13.3464358,0.951681766 13.8590694,1.3903634 L14.0080504,1.52821661 L22.6883225,10.2084887 C23.2563819,10.7765481 23.4022875,11.6936689 23.0601152,12.3712714 C22.8476438,13.0086857 22.1971747,13.4693228 21.4421755,13.5279082 L21.2789116,13.5342262 L20.501,13.534 L20.5011005,19.5324297 C20.4399479,21.000092 19.3056467,22.2032737 17.9075426,22.3734699 L17.7385556,22.3888859 L17.5673469,22.3940901 L6.37278913,22.3940901 C4.82759829,22.3940901 3.58989907,21.2115763 3.50346289,19.6903201 L3.49863945,19.5199405 L3.498,13.534 L2.72108843,13.5342262 C2.04063384,13.5342262 1.37445031,13.1609573 1.03085291,12.614489 L0.957427919,12.4853975 L0.896297698,12.3507032 C0.567614352,11.6933365 0.709270624,10.8498439 1.20159586,10.268325 L1.3124179,10.1478869 L9.91844469,1.6026612 C10.4026284,1.04930844 11.1482069,0.72198129 11.9401361,0.72198129 Z M11.8802721,2.51926021 C11.6592768,2.51926021 11.4267396,2.61495852 11.2675402,2.76883006 L11.194445,2.85043987 L2.63390072,11.4109841 L2.61041117,11.4440744 L2.56088064,11.5598416 C2.5571833,11.5675369 2.55410328,11.5718741 2.55165589,11.5712175 C2.60859097,11.6566201 2.67929151,11.7114456 2.73880485,11.7299597 L2.78095237,11.7369473 L4.45714286,11.7369473 C4.9416374,11.7369473 5.2973851,12.0554262 5.34924868,12.5172467 L5.3557823,12.6355867 L5.3557823,19.5199405 C5.35578232,20.0357769 5.81240903,20.5267927 6.32264346,20.5899689 L6.43265306,20.5968112 L17.5673469,20.5968112 C18.1213939,20.5968112 18.5885677,20.1539198 18.6884112,19.5840255 L18.7040816,19.4600765 L18.7040816,12.6355867 C18.7040816,12.1510922 19.0225605,11.7953445 19.484381,11.7434809 L19.6027211,11.7369473 L21.2789116,11.7369473 C21.3208492,11.7369473 21.3613133,11.7305713 21.3962691,11.7200009 L21.435,11.705 L21.4446992,11.6744422 C21.4520245,11.6234253 21.4367205,11.5669832 21.4041824,11.5175223 L21.3660993,11.470848 L12.6858272,2.7905759 C12.5115975,2.61634625 12.2324751,2.51926021 11.8802721,2.51926021 Z" id="形状"></path>
                        <path d="M11.3414966,8.50429422 L11.2567473,8.51130587 C11.0294738,8.54822219 10.7996679,8.72705416 10.7514058,8.95580723 L10.75,8.968 L9.08588395,13.3063815 C8.98090769,13.5131551 9.05262929,13.7641807 9.21371827,13.9252698 L9.24641471,13.9845385 C9.33056454,14.0999525 9.52195517,14.1927296 9.72517013,14.1927296 L11.027,14.192 L9.62403071,17.9175591 L9.60476191,18.0233418 C9.60476191,18.2780488 9.65976888,18.4430697 9.96462585,18.4430697 L10.289665,18.4430697 L14.6300896,12.9411231 C14.8124524,12.7616841 14.8444836,12.5054343 14.7227499,12.2619669 L14.6433211,12.1522714 C14.4814818,11.9508689 14.3013301,11.8566752 14.0952381,11.8566752 L12.492,11.856 L13.4183137,9.38854282 C13.5224937,9.18386871 13.4507721,8.93284298 13.289683,8.77175398 C13.2363053,8.63057415 13.0153154,8.50429422 12.7782313,8.50429422 L11.3414966,8.50429422 Z" id="路径"></path>
                    </g>
                </g>
            </g>
        </g>
    </g>
</svg>