<?xml version="1.0" encoding="UTF-8"?>
<svg width="148px" height="259px" viewBox="0 0 148 259" version="1.1" xmlns="http://www.w3.org/2000/svg" xmlns:xlink="http://www.w3.org/1999/xlink">
    <title>编组 20</title>
    <defs>
        <filter x="-17.1%" y="-8.7%" width="134.4%" height="117.5%" filterUnits="objectBoundingBox" id="filter-1">
            <feOffset dx="0" dy="0" in="SourceAlpha" result="shadowOffsetOuter1"></feOffset>
            <feGaussianBlur stdDeviation="5" in="shadowOffsetOuter1" result="shadowBlurOuter1"></feGaussianBlur>
            <feColorMatrix values="0 0 0 0 0   0 0 0 0 0.8   0 0 0 0 1  0 0 0 0.4 0" type="matrix" in="shadowBlurOuter1" result="shadowMatrixOuter1"></feColorMatrix>
            <feMerge>
                <feMergeNode in="shadowMatrixOuter1"></feMergeNode>
                <feMergeNode in="SourceGraphic"></feMergeNode>
            </feMerge>
        </filter>
    </defs>
    <g id="页面-1" stroke="none" stroke-width="1" fill="none" fill-rule="evenodd">
        <g id="设备明细-气象站" transform="translate(-693.000000, -334.000000)">
            <g id="编组-8备份-2" transform="translate(228.000000, 255.000000)">
                <g id="编组-17" transform="translate(324.000000, 94.000000)">
                    <g id="编组-20" filter="url(#filter-1)" transform="translate(156.000000, 0.000000)">
                        <path d="M49,61.5 C49.4142136,61.5 49.7892136,61.6678932 50.0606602,61.9393398 C50.3321068,62.2107864 50.5,62.5857864 50.5,63 L50.5,63 L50.5,65.5 L83,65.5 C83.4142136,65.5 83.7892136,65.6678932 84.0606602,65.9393398 C84.3321068,66.2107864 84.5,66.5857864 84.5,67 L84.5,67 L84.5,83 C84.5,83.4142136 84.3321068,83.7892136 84.0606602,84.0606602 C83.7892136,84.3321068 83.4142136,84.5 83,84.5 L83,84.5 L33,84.5 C32.5857864,84.5 32.2107864,84.3321068 31.9393398,84.0606602 C31.6678932,83.7892136 31.5,83.4142136 31.5,83 L31.5,83 L31.5,63 C31.5,62.5857864 31.6678932,62.2107864 31.9393398,61.9393398 C32.2107864,61.6678932 32.5857864,61.5 33,61.5 L33,61.5 Z" id="形状结合" stroke="#00A7DB"></path>
                        <rect id="矩形" fill="#00A7DB" x="66" y="79" width="2" height="2"></rect>
                        <rect id="矩形备份-7" fill="#00A7DB" x="62" y="79" width="2" height="2"></rect>
                        <rect id="矩形备份-4" fill="#00A7DB" x="70" y="79" width="2" height="2"></rect>
                        <rect id="矩形备份-5" fill="#00A7DB" x="74" y="79" width="2" height="2"></rect>
                        <rect id="矩形备份-6" fill="#00A7DB" x="78" y="79" width="2" height="2"></rect>
                        <g id="编组-12" transform="translate(67.000000, 47.000000)" stroke="#00A7DB">
                            <path d="M14,3.5 C14.4142136,3.5 14.7892136,3.66789322 15.0606602,3.93933983 C15.3321068,4.21078644 15.5,4.58578644 15.5,5 L15.5,5 L15.5,18.5 L0.5,18.5 L0.5,5 C0.5,4.58578644 0.667893219,4.21078644 0.939339828,3.93933983 C1.21078644,3.66789322 1.58578644,3.5 2,3.5 L2,3.5 L14,3.5 Z" id="矩形备份-2"></path>
                            <path d="M12,0.5 L12.5,3.5 L3.5,3.5 L3.5,1 L12,0.5 Z" id="矩形备份-2"></path>
                            <line x1="1" y1="16" x2="15" y2="16" id="路径-19" stroke-width="0.5" opacity="0.300000012"></line>
                            <line x1="1" y1="14" x2="15" y2="14" id="路径-19备份" stroke-width="0.5" opacity="0.300000012"></line>
                            <line x1="1" y1="12" x2="15" y2="12" id="路径-19备份-2" stroke-width="0.5" opacity="0.300000012"></line>
                            <line x1="1" y1="10" x2="15" y2="10" id="路径-19备份-3" stroke-width="0.5" opacity="0.300000012"></line>
                            <line x1="1" y1="8" x2="15" y2="8" id="路径-19备份-4" stroke-width="0.5" opacity="0.300000012"></line>
                            <line x1="1" y1="6" x2="15" y2="6" id="路径-19备份-5" stroke-width="0.5" opacity="0.300000012"></line>
                            <line x1="1" y1="4" x2="15" y2="4" id="路径-19备份-6" stroke-width="0.5" opacity="0.300000012"></line>
                        </g>
                        <path d="M59.65711,84.5 L114.980479,227.74801 C114.991893,227.99131 114.960191,228.183923 114.876921,228.322008 L114.876921,228.322008 L112.68578,228.5 L59.4991775,91.6749 L59.5,228 L57,228.5 L56.4991775,91.6745173 L3.78064371,228.180136 L1.45819373,228.5 L56.3430499,84.5 L59.65711,84.5 Z" id="形状结合" stroke="#00A7DB"></path>
                        <path d="M59,21.5 L59.5,61.5 L61,61.5 L61.5,65 L55,65.5 L54.5,62 L56.5,61.5 L56.5,31.5 L49,31.5 L48.5,22 L59,21.5 Z" id="形状结合" stroke="#00A7DB"></path>
                        <line x1="52" y1="13" x2="52" y2="22" id="路径-5" stroke="#00A7DB"></line>
                        <path d="M73.3603496,0.5 C73.697226,0.607566765 73.8535908,0.684182081 73.9062622,0.827147321 C73.9504991,0.947218793 73.9489302,1.08416606 73.8910704,1.20952909 L73.8910704,1.20952909 L68.8141473,12.2095291 C68.7732838,12.2980667 68.7085452,12.3706844 68.6296444,12.4211677 C68.5507435,12.4716511 68.4576803,12.5 68.3601676,12.5 L68.3601676,12.5 L46,12.5 C45.8619288,12.5 45.7369288,12.4440356 45.6464466,12.3535534 C45.5559644,12.2630712 45.5,12.1380712 45.5,12 L45.5,12 L45.5,10.9355531 C45.5,10.8039371 45.5510229,10.6835915 45.6348769,10.593961 C45.7187309,10.5043306 45.835416,10.4454155 45.9667405,10.4366605 L45.9667405,10.4366605 L59.6583566,9.52388611 C60.0208866,9.49971744 60.3623218,9.34478499 60.6192382,9.08786854 L60.6192382,9.08786854 L69.0606602,0.646446609 Z" id="路径-6" stroke="#00A7DB"></path>
                        <g id="编组-8" transform="translate(76.000000, 126.000000)" stroke="#00A7DB">
                            <path d="M0,0 L18.3140652,0 C18.7274076,1.47838247e-15 19.0981539,0.254307751 19.2469884,0.639924406 L40.6727021,56.1520009 C40.8582941,56.6328529 40.6480028,57.1759986 40.1869926,57.4065037 L25.9851632,64.5074184 C25.4911847,64.7544077 24.8905116,64.5541833 24.6435224,64.0602048 C24.6291381,64.0314363 24.6161502,64.0019906 24.604604,63.9719703 L0,0 L0,0 Z" id="路径-7" stroke-linejoin="round"></path>
                            <line x1="3" y1="8" x2="21" y2="6" id="路径-8" stroke-width="0.5" opacity="0.300000012"></line>
                            <line x1="6" y1="16" x2="24" y2="13" id="路径-9" stroke-width="0.5" opacity="0.300000012"></line>
                            <line x1="9" y1="22" x2="26" y2="18" id="路径-10" stroke-width="0.5" opacity="0.300000012"></line>
                            <line x1="11" y1="29" x2="28" y2="24" id="路径-11" stroke-width="0.5" opacity="0.300000012"></line>
                            <line x1="14" y1="35" x2="31" y2="30" id="路径-12" stroke-width="0.5" opacity="0.300000012"></line>
                            <line x1="16" y1="42" x2="33" y2="36" id="路径-13" stroke-width="0.5" opacity="0.300000012"></line>
                            <line x1="19" y1="49" x2="35" y2="43" id="路径-14" stroke-width="0.5" opacity="0.300000012"></line>
                            <line x1="22" y1="57" x2="38" y2="50" id="路径-15" stroke-width="0.5" opacity="0.300000012"></line>
                            <line x1="4" y1="0" x2="29" y2="63" id="路径-16" stroke-width="0.5" opacity="0.300000012"></line>
                            <line x1="9" y1="0" x2="33" y2="61" id="路径-17" stroke-width="0.5" opacity="0.300000012"></line>
                            <line x1="14" y1="0" x2="37" y2="59" id="路径-18" stroke-width="0.5" opacity="0.300000012"></line>
                        </g>
                        <g id="编组-18" transform="translate(25.000000, 165.500000)" opacity="0.400000006" stroke="#00A7DB" stroke-width="0.5">
                            <line x1="0" y1="7.5" x2="31" y2="16.5" id="路径-20"></line>
                            <line x1="0" y1="7.5" x2="31" y2="0.5" id="路径-20"></line>
                            <line x1="35" y1="7.5" x2="66" y2="16.5" id="路径-20" transform="translate(50.500000, 12.000000) scale(-1, 1) translate(-50.500000, -12.000000) "></line>
                            <line x1="35" y1="7.5" x2="66" y2="0.5" id="路径-20" transform="translate(50.500000, 4.000000) scale(-1, 1) translate(-50.500000, -4.000000) "></line>
                        </g>
                    </g>
                </g>
            </g>
        </g>
    </g>
</svg>